<svg xmlns="http://www.w3.org/2000/svg" xmlns:xlink="http://www.w3.org/1999/xlink" fill="none" version="1.1" width="200" height="200" viewBox="0 0 200 200"><defs><clipPath id="master_svg0_3_7"><rect x="0" y="0" width="200" height="200" rx="0"/></clipPath></defs><g style="mix-blend-mode:passthrough" clip-path="url(#master_svg0_3_7)"><rect x="0" y="0" width="200" height="200" rx="0" fill="#FFFFFF" fill-opacity="1"/><g style="opacity:0.5;mix-blend-mode:passthrough"><rect x="0" y="0" width="200" height="200" rx="0" fill="#ADADAD" fill-opacity="1"/></g><g style="mix-blend-mode:passthrough"><path d="M61,148.5L62.5,156L65.5,166.5L70,173.5L70,159.5L71.5,152.5L73.5,147.5L77,141L82,134L87,130.5L89.5,129.5L94.5,129.5L97,130.5L99.5,134L99.5,146L98,148.5L93.5,154L98,152.5L108.5,145L116.5,138L126,126.5L130,119.5L127,119.5L134.5,111L131,111L135.5,105.5L137,102L138,98.5L139,93L139,82.5L138,72.5L135.5,66L133,60.5L130,56.5L131,62.5L131,67.5L131,78.5L128.5,86.5L123.5,93L118.5,96L116.5,97L110.5,97L108.5,94.5L106.5,93L106.5,86.5L108.5,84L110.5,84L112,86.5L113.5,86.5L113.5,78.5L110.5,70.5L105,64.5L99.5,62.5L101,67.5L101,77.5L99.5,81L97,82.5L92,82.5L88.5,81L85.5,76.5L82,67.5L82,58.5L83.5,55.5L85.5,53.5L89.5,53.5L93.5,55.5L89.5,47.5L79.5,36.5L75,30.5L73,25.5L70,13L70,82.5Q74.4313,83.3863,80.5,86.5L85.5,93L88.5,98.5L88.5,103.5L88.5,111L87,114L85.5,117L82,118L77,118L75,118L73.5,117L70,114L66.5,117L62.5,126.5L61,139L61,148.5Z" fill="#FFFFFF" fill-opacity="1"/></g></g></svg>