<svg xmlns="http://www.w3.org/2000/svg" xmlns:xlink="http://www.w3.org/1999/xlink" fill="none" version="1.1" width="744" height="230" viewBox="0 0 744 230"><defs><clipPath id="master_svg0_1_0"><rect x="0" y="0" width="802" height="230" rx="0"/></clipPath><filter id="master_svg1_1_6" filterUnits="objectBoundingBox" color-interpolation-filters="sRGB" x="-16" y="-13" width="776" height="126"><feFlood flood-opacity="0" result="BackgroundImageFix"/><feColorMatrix in="SourceAlpha" type="matrix" values="0 0 0 0 0 0 0 0 0 0 0 0 0 0 0 0 0 0 127 0"/><feOffset dy="3" dx="0"/><feGaussianBlur stdDeviation="4"/><feColorMatrix type="matrix" values="0 0 0 0 0 0 0 0 0 0 0 0 0 0 0 0 0 0 0.1599999964237213 0"/><feBlend mode="normal" in2="BackgroundImageFix" result="effect1_dropShadow"/><feBlend mode="normal" in="SourceGraphic" in2="effect1_dropShadow" result="shape"/></filter></defs><g style="mix-blend-mode:passthrough" clip-path="url(#master_svg0_1_0)"><rect x="0" y="0" width="802" height="230" rx="0" fill="#FFFFFF" fill-opacity="0"/><g style="mix-blend-mode:passthrough" filter="url(#master_svg1_1_6)"><path d="M2.89062,172L2.89062,159.688L10.2031,158.641L42.75,69.625L63.7812,69.625L96.125,158.641L103.438,159.688L103.438,172L68.5625,172L68.5625,159.688L75.6562,158.422L71.1562,144.35899999999998L35.1562,144.35899999999998L30.6562,158.422L37.7656,159.688L37.7656,172L2.89062,172ZM40.0156,129.25L66.3125,129.25L54.3594,94.1562L53.375,91.0625L52.9531,91.0625L51.8906,94.375L40.0156,129.25ZM109.938,172L109.938,159.688L120.844,157.578L120.844,84.1094L109.938,82L109.938,69.625L152.266,69.625L152.266,82L141.375,84.1094L141.375,157.578L152.266,159.688L152.266,172L109.938,172ZM210.562,173.484Q198.406,173.484,189.156,169.266Q179.906,165.031,174.766,157.016Q169.641,149,169.641,137.547L169.641,84.1094L158.75,82L158.75,69.625L201.141,69.625L201.141,82L190.172,84.1094L190.172,137.547Q190.172,144.297,192.625,148.797Q195.094,153.297,199.656,155.516Q204.234,157.719,210.562,157.719Q217.031,157.719,221.641,155.516Q226.25,153.297,228.703,148.797Q231.172,144.297,231.172,137.547L231.172,84.1094L220.266,82L220.266,69.625L262.672,69.625L262.672,82L251.703,84.1094L251.703,137.547Q251.703,149,246.531,157.062Q241.359,165.109,232.109,169.297Q222.875,173.484,210.562,173.484ZM268.938,172L268.938,159.688L279.844,157.578L279.844,84.1094L268.938,82L268.938,69.625L317.453,69.625Q329.266,69.625,337.703,73.2812Q346.141,76.9375,350.672,83.7656Q355.219,90.5781,355.219,100.1406Q355.219,109.1406,350.719,116.25Q346.219,123.344,338.203,127.422Q330.188,131.5,319.703,131.562L300.375,131.562L300.375,157.578L311.344,159.688L311.344,172L268.938,172ZM334.828,172L317.594,127.766L336.094,123.203L351,157.656L359.719,159.688L359.719,172L334.828,172ZM300.375,115.75L317.109,115.75Q325.969,115.75,330.359,111.9844Q334.75,108.2188,334.75,101.0469Q334.75,93.9531,330.391,89.7031Q326.031,85.4375,317.453,85.4375L300.375,85.4375L300.375,115.75ZM409.703,173.484Q398.391,173.484,389.109,170.953Q379.828,168.406,370.828,162.156L370.828,137.406L386.719,137.406L388.891,151.953Q392.062,154.625,397.609,156.281Q403.172,157.938,409.703,157.938Q415.266,157.938,419.094,156.391Q422.922,154.844,424.922,152Q426.938,149.141,426.938,145.281Q426.938,141.625,425.141,138.781Q423.344,135.922,419.234,133.578Q415.125,131.219,408.094,129.031Q395.922,125.453,387.938,121.203Q379.969,116.9375,375.984,111Q372.016,105.0625,372.016,96.6875Q372.016,88.3906,376.625,82.0312Q381.234,75.6719,389.391,72.0156Q397.547,68.3594,408.234,68.2188Q420.047,68.0781,429.141,71.0312Q438.25,73.9844,444.859,79.25L444.859,102.3125L429.469,102.3125L426.797,88.25Q424.125,86.5625,419.578,85.2969Q415.047,84.0312,409.281,84.0312Q404.359,84.0312,400.594,85.5156Q396.844,86.9844,394.656,89.7969Q392.484,92.6094,392.484,96.625Q392.484,100.0625,394.375,102.6406Q396.281,105.2031,400.734,107.4844Q405.203,109.7656,413.078,112.375Q430.031,117.0781,438.781,124.812Q447.531,132.547,447.531,145.14100000000002Q447.531,153.859,442.812,160.219Q438.109,166.578,429.594,170.031Q421.094,173.484,409.703,173.484ZM502.844,173.484Q492.5,173.484,483.984,169.609Q475.484,165.734,469.328,158.75Q463.188,151.75,459.875,142.297Q456.578,132.828,456.578,121.578L456.578,120.0312Q456.578,108.8594,459.875,99.4062Q463.188,89.9375,469.297,82.9062Q475.422,75.875,483.922,72.0156Q492.438,68.1406,502.766,68.1406Q513.172,68.1406,521.75,72.0156Q530.328,75.875,536.516,82.9062Q542.703,89.9375,546.047,99.4062Q549.391,108.8594,549.391,120.0312L549.391,121.578Q549.391,132.828,546.047,142.297Q542.703,151.75,536.516,158.75Q530.328,165.734,521.781,169.609Q513.25,173.484,502.844,173.484ZM502.844,157.516Q511.562,157.516,517.328,153.016Q523.094,148.51600000000002,526,140.438Q528.922,132.344,528.922,121.578L528.922,119.8906Q528.922,109.2812,525.969,101.2344Q523.016,93.1719,517.219,88.6719Q511.422,84.1719,502.766,84.1719Q494.188,84.1719,488.484,88.6406Q482.797,93.1094,479.953,101.125Q477.109,109.1406,477.109,119.8906L477.109,121.578Q477.109,132.344,479.953,140.438Q482.797,148.51600000000002,488.531,153.016Q494.266,157.516,502.844,157.516ZM557.938,172L557.938,159.688L568.844,157.578L568.844,84.1094L557.938,82L557.938,69.625L639.438,69.625L639.438,97.6719L623.688,97.6719L622.766,85.4375L589.375,85.4375L589.375,113.6406L625.234,113.6406L625.234,129.453L589.375,129.453L589.375,157.578L600.344,159.688L600.344,172L557.938,172ZM670.5,172L670.5,159.688L681.469,157.578L681.469,85.4375L662.828,85.4375L661.703,97.6719L646.172,97.6719L646.172,69.625L737.5,69.625L737.5,97.6719L721.891,97.6719L720.766,85.4375L702,85.4375L702,157.578L713.031,159.688L713.031,172L670.5,172Z" fill="#A7A8BD" fill-opacity="1"/><path d="M483.57,170.52Q492.283,174.484,502.844,174.484Q513.467,174.484,522.194,170.52Q530.936,166.557,537.265,159.412Q543.581,152.267,546.99,142.63Q550.391,133,550.391,121.578L550.391,120.0312Q550.391,108.6871,546.99,99.0733Q543.581,89.4213,537.266,82.2456Q530.936,75.05199999999999,522.162,71.1043Q513.388,67.1406,502.766,67.1406Q492.221,67.1406,483.508,71.1051Q474.811,75.0543,468.542,82.2504Q462.307,89.4266,458.931,99.0769Q455.578,108.6898,455.578,120.0312L455.578,121.578Q455.578,132.997,458.931,142.628Q462.308,152.264,468.578,159.411Q474.875,166.556,483.57,170.52ZM388.846,171.918Q398.256,174.484,409.703,174.484Q421.289,174.484,429.97,170.958Q438.746,167.399,443.616,160.815Q448.531,154.19,448.531,145.14100000000002Q448.531,132.096,439.444,124.063Q430.527,116.1819,413.369,111.418Q405.583,108.837,401.19,106.5944Q396.944,104.4194,395.181,102.0493Q393.484,99.7352,393.484,96.625Q393.484,92.9505,395.446,90.4108Q397.464,87.8153,400.96,86.446Q404.549,85.0312,409.281,85.0312Q414.91,85.0312,419.31,86.2603Q423.407,87.4007,425.897,88.8722L428.641,103.3125L445.859,103.3125L445.859,78.7681L445.482,78.4679Q438.731,73.0891,429.449,70.0801Q420.199,67.0762,408.221,67.2188Q397.327,67.3622,388.982,71.1031Q380.582,74.86869999999999,375.815,81.4444Q371.016,88.0662,371.016,96.6875Q371.016,105.3658,375.154,111.5572Q379.277,117.7015,387.468,122.086Q395.542,126.384,407.797,129.986Q414.723,132.14100000000002,418.739,134.447Q422.63,136.666,424.295,139.315Q425.938,141.914,425.938,145.281Q425.938,148.824,424.104,151.425Q422.274,154.027,418.719,155.463Q415.071,156.938,409.703,156.938Q403.318,156.938,397.895,155.323Q392.799,153.801,389.823,151.424L387.581,136.406L369.828,136.406L369.828,162.679L370.258,162.978Q379.399,169.325,388.846,171.918ZM388.891,151.953L386.719,137.406L370.828,137.406L370.828,162.156Q379.828,168.406,389.109,170.953Q398.391,173.484,409.703,173.484Q421.094,173.484,429.594,170.031Q438.109,166.578,442.812,160.219Q447.531,153.859,447.531,145.14100000000002Q447.531,132.547,438.781,124.812Q430.031,117.0781,413.078,112.375Q405.203,109.7656,400.734,107.4844Q396.281,105.2031,394.375,102.6406Q392.484,100.0625,392.484,96.625Q392.484,92.6094,394.656,89.7969Q396.844,86.9844,400.594,85.5156Q404.359,84.0312,409.281,84.0312Q415.047,84.0312,419.578,85.2969Q424.125,86.5625,426.797,88.25L429.469,102.3125L444.859,102.3125L444.859,79.25Q438.25,73.9844,429.141,71.0312Q420.047,68.0781,408.234,68.2188Q397.547,68.3594,389.391,72.0156Q381.234,75.6719,376.625,82.0312Q372.016,88.3906,372.016,96.6875Q372.016,105.0625,375.984,111Q379.969,116.9375,387.938,121.203Q395.922,125.453,408.094,129.031Q415.125,131.219,419.234,133.578Q423.344,135.922,425.141,138.781Q426.938,141.625,426.938,145.281Q426.938,149.141,424.922,152Q422.922,154.844,419.094,156.391Q415.266,157.938,409.703,157.938Q403.172,157.938,397.609,156.281Q392.062,154.625,388.891,151.953ZM483.984,169.609Q492.5,173.484,502.844,173.484Q513.25,173.484,521.781,169.609Q530.328,165.734,536.516,158.75Q542.703,151.75,546.047,142.297Q549.391,132.828,549.391,121.578L549.391,120.0312Q549.391,108.8594,546.047,99.4062Q542.703,89.9375,536.516,82.9062Q530.328,75.875,521.75,72.0156Q513.172,68.1406,502.766,68.1406Q492.438,68.1406,483.922,72.0156Q475.422,75.875,469.297,82.9062Q463.188,89.9375,459.875,99.4062Q456.578,108.8594,456.578,120.0312L456.578,121.578Q456.578,132.828,459.875,142.297Q463.188,151.75,469.328,158.75Q475.484,165.734,483.984,169.609ZM1.89062,158.82L1.89062,173L38.7656,173L38.7656,158.85L31.9571,157.638L35.8862,145.35899999999998L70.4263,145.35899999999998L74.3555,157.638L67.5625,158.85L67.5625,173L104.438,173L104.438,158.82L96.8602,157.736L64.4819,68.625L42.0509,68.625L9.46933,157.735L1.89062,158.82ZM10.2031,158.641L2.89062,159.688L2.89062,172L37.7656,172L37.7656,159.688L31.6496,158.599L30.6562,158.422L30.9638,157.461L35.1562,144.35899999999998L71.1562,144.35899999999998L75.6562,158.422L74.663,158.599L68.5625,159.688L68.5625,172L103.438,172L103.438,159.688L96.125,158.641L63.7812,69.625L42.75,69.625L10.2031,158.641ZM108.938,158.862L108.938,173L153.266,173L153.266,158.863L142.375,156.753L142.375,84.93430000000001L153.266,82.8249L153.266,68.625L108.938,68.625L108.938,82.82509999999999L119.844,84.9345L119.844,156.753L108.938,158.862ZM120.844,157.578L109.938,159.688L109.938,172L152.266,172L152.266,159.688L141.375,157.578L141.375,84.1094L152.266,82L152.266,69.625L109.938,69.625L109.938,82L120.844,84.1094L120.844,157.578ZM188.741,170.175Q198.189,174.484,210.562,174.484Q223.091,174.484,232.522,170.208Q242.041,165.899,247.373,157.602Q252.703,149.293,252.703,137.547L252.703,84.9354L263.672,82.826L263.672,68.625L219.266,68.625L219.266,82.82509999999999L230.172,84.9345L230.172,137.547Q230.172,144.041,227.825,148.31799999999998Q225.526,152.535,221.209,154.613Q216.805,156.719,210.562,156.719Q204.463,156.719,200.094,154.616Q195.817,152.537,193.503,148.31799999999998Q191.172,144.042,191.172,137.547L191.172,84.9354L202.141,82.826L202.141,68.625L157.75,68.625L157.75,82.8249L168.641,84.93430000000001L168.641,137.547Q168.641,149.292,173.924,157.555Q179.223,165.818,188.741,170.175ZM169.641,84.1094L169.641,137.547Q169.641,149,174.766,157.016Q179.906,165.031,189.156,169.266Q198.406,173.484,210.562,173.484Q222.875,173.484,232.109,169.297Q241.359,165.109,246.531,157.062Q251.703,149,251.703,137.547L251.703,84.1094L262.672,82L262.672,69.625L220.266,69.625L220.266,82L231.172,84.1094L231.172,137.547Q231.172,144.297,228.703,148.797Q226.25,153.297,221.641,155.516Q217.031,157.719,210.562,157.719Q204.234,157.719,199.656,155.516Q195.094,153.297,192.625,148.797Q190.172,144.297,190.172,137.547L190.172,84.1094L201.141,82L201.141,69.625L158.75,69.625L158.75,82L169.641,84.1094ZM267.938,158.862L267.938,173L312.344,173L312.344,158.861L301.375,156.752L301.375,132.562L318.389,132.562L333.896,172.363L334.145,173L360.719,173L360.719,158.894L351.718,156.797L339.259,128Q347.087,123.841,351.564,116.7848Q356.219,109.4304,356.219,100.1406Q356.219,90.275,351.505,83.2127Q346.81,76.1378,338.101,72.3637Q329.473,68.625,317.453,68.625L267.938,68.625L267.938,82.82509999999999L278.844,84.9345L278.844,156.753L267.938,158.862ZM279.844,157.578L268.938,159.688L268.938,172L311.344,172L311.344,159.688L300.375,157.578L300.375,131.562L319.073,131.562L319.463,132.562L334.828,172L359.719,172L359.719,159.688L351,157.656L338.368,128.459L337.97,127.539Q338.086,127.481,338.203,127.422Q338.535,127.253,338.86,127.079Q346.405,123.05,350.719,116.25Q355.219,109.1406,355.219,100.1406Q355.219,90.5781,350.672,83.7656Q346.141,76.9375,337.703,73.2812Q329.266,69.625,317.453,69.625L268.938,69.625L268.938,82L279.844,84.1094L279.844,157.578ZM556.938,158.862L556.938,173L601.344,173L601.344,158.861L590.375,156.752L590.375,130.453L626.234,130.453L626.234,112.6406L590.375,112.6406L590.375,86.4375L621.838,86.4375L622.76,98.6719L640.438,98.6719L640.438,68.625L556.938,68.625L556.938,82.82509999999999L567.844,84.9345L567.844,156.753L556.938,158.862ZM568.844,157.578L557.938,159.688L557.938,172L600.344,172L600.344,159.688L589.375,157.578L589.375,129.453L625.234,129.453L625.234,113.6406L589.375,113.6406L589.375,85.4375L622.766,85.4375L623.688,97.6719L639.438,97.6719L639.438,69.625L557.938,69.625L557.938,82L568.844,84.1094L568.844,157.578ZM669.5,158.861L669.5,173L714.031,173L714.031,158.861L703,156.751L703,86.4375L719.853,86.4375L720.978,98.6719L738.5,98.6719L738.5,68.625L645.172,68.625L645.172,98.6719L662.615,98.6719L663.74,86.4375L680.469,86.4375L680.469,156.752L669.5,158.861ZM681.469,157.578L670.5,159.688L670.5,172L713.031,172L713.031,159.688L702,157.578L702,85.4375L720.766,85.4375L721.891,97.6719L737.5,97.6719L737.5,69.625L646.172,69.625L646.172,97.6719L661.703,97.6719L662.828,85.4375L681.469,85.4375L681.469,157.578ZM517.328,153.016Q511.562,157.516,502.844,157.516Q494.266,157.516,488.531,153.016Q482.797,148.51600000000002,479.953,140.438Q477.109,132.344,477.109,121.578L477.109,119.8906Q477.109,109.1406,479.953,101.125Q482.797,93.1094,488.484,88.6406Q494.188,84.1719,502.766,84.1719Q511.422,84.1719,517.219,88.6719Q523.016,93.1719,525.969,101.2344Q528.922,109.2812,528.922,119.8906L528.922,121.578Q528.922,132.344,526,140.438Q523.094,148.51600000000002,517.328,153.016ZM516.713,152.227Q511.218,156.516,502.844,156.516Q494.611,156.516,489.149,152.229Q483.643,147.909,480.897,140.106Q478.109,132.173,478.109,121.578L478.109,119.8906Q478.109,109.3129,480.896,101.4594Q483.642,93.7168,489.101,89.4278Q494.532,85.1718,502.766,85.1719Q511.079,85.1719,516.606,89.4618Q522.176,93.7858,525.03,101.5789Q527.922,109.4585,527.922,119.8906L527.922,121.578Q527.922,132.168,525.059,140.099Q522.251,147.905,516.713,152.227ZM317.109,114.75L301.375,114.75L301.375,86.4375L317.453,86.4375Q325.623,86.4375,329.693,90.4192Q333.75,94.3748,333.75,101.0469Q333.75,107.759,329.708,111.2253Q325.599,114.75,317.109,114.75ZM301.375,85.4375L317.453,85.4375Q326.031,85.4375,330.391,89.7031Q334.75,93.9531,334.75,101.0469Q334.75,108.2188,330.359,111.9844Q325.969,115.75,317.109,115.75L300.375,115.75L300.375,85.4375L301.375,85.4375ZM41.072,129.25L40.0156,129.25L40.3561,128.25L51.8906,94.375L52.6381,92.0446L52.9052,91.212L52.9531,91.0625L53.375,91.0625L53.423,91.2132L53.6879,92.0459L54.3594,94.1562L65.9719,128.25L66.3125,129.25L41.072,129.25ZM41.4125,128.25L52.8428,94.6804L53.1612,93.688L53.4128,94.4787L64.9155,128.25L41.4125,128.25Z" fill-rule="evenodd" fill="#FCFCFC" fill-opacity="1"/></g></g></svg>