<svg xmlns="http://www.w3.org/2000/svg" xmlns:xlink="http://www.w3.org/1999/xlink" fill="none" version="1.1" width="788" height="230" viewBox="0 0 788 230"><defs><clipPath id="master_svg0_1_0"><rect x="0" y="0" width="788" height="230" rx="0"/></clipPath></defs><g style="mix-blend-mode:passthrough" clip-path="url(#master_svg0_1_0)"><rect x="0" y="0" width="788" height="230" rx="0" fill="#FFFFFF" fill-opacity="0"/><g style="mix-blend-mode:passthrough"><path d="M23.25,161L23.25,147.703L30.5625,146.656L62.1406,58.625L85.8281,58.625L117.3281,146.656L124.578,147.703L124.578,161L88.1562,161L88.1562,147.703L95.0469,146.438L91.1719,133.781L56.6562,133.781L52.9219,146.438L59.8125,147.703L59.8125,161L23.25,161ZM61.7188,117.609L86.1094,117.609L75.1406,84.4219L74.0938,81.125L73.6719,81.125L72.5469,84.7031L61.7188,117.609ZM130.375,161L130.375,147.703L141.203,145.531L141.203,74.1562L130.375,71.9844L130.375,58.625L174.391,58.625L174.391,71.9844L163.641,74.1562L163.641,145.531L174.391,147.703L174.391,161L130.375,161ZM232.984,162.484Q220.328,162.484,210.797,158.266Q201.281,154.031,196.078,145.922Q190.875,137.797,190.875,126.125L190.875,74.1562L180.109,71.9844L180.109,58.625L224.125,58.625L224.125,71.9844L213.375,74.1562L213.375,126.125Q213.375,132.594,215.688,136.89100000000002Q218.016,141.172,222.406,143.281Q226.797,145.391,232.922,145.391Q239.25,145.391,243.672,143.281Q248.109,141.172,250.391,136.89100000000002Q252.672,132.594,252.672,126.125L252.672,74.1562L241.984,71.9844L241.984,58.625L286,58.625L286,71.9844L275.172,74.1562L275.172,126.125Q275.172,137.656,269.85900000000004,145.812Q264.562,153.969,255.094,158.234Q245.641,162.484,232.984,162.484ZM291.375,161L291.375,147.703L302.203,145.531L302.203,74.1562L291.375,71.9844L291.375,58.5469L340.812,58.5469Q352.766,58.5469,361.438,62.3125Q370.125,66.0781,374.797,73.0781Q379.484,80.0625,379.484,89.7031Q379.484,98.7031,374.797,106.125Q370.125,113.531,361.859,117.891Q353.609,122.25,342.922,122.25L324.703,122.109L324.703,145.531L335.469,147.703L335.469,161L291.375,161ZM356.766,161L341.156,118.812L361.125,112.969L374.844,145.531L384.047,147.703L384.047,161L356.766,161ZM324.703,104.8125L340.734,104.8125Q348.828,104.8125,352.969,101.2656Q357.125,97.7188,357.125,90.9688Q357.125,84.0781,352.938,79.9688Q348.75,75.8438,340.812,75.8438L324.703,75.8438L324.703,104.8125ZM434.625,162.484Q422.734,162.484,413.234,160.016Q403.75,157.547,394.469,151.156L394.469,125.484L411.844,125.484L414.016,139.625Q416.688,142.219,422.312,143.906Q427.938,145.594,434.625,145.594Q439.75,145.594,443.266,144.234Q446.781,142.859,448.609,140.297Q450.438,137.719,450.438,134.203Q450.438,130.828,448.781,128.203Q447.141,125.562,443.344,123.312Q439.547,121.062,433.078,118.875Q420.422,115.016,412.219,110.688Q404.031,106.3594,399.984,100.4219Q395.953,94.4844,395.953,85.8281Q395.953,77.4688,400.688,71.1094Q405.438,64.7344,413.734,61.0781Q422.031,57.4219,432.859,57.2812Q445.031,57,454.375,59.8906Q463.734,62.7656,470.688,68.1875L470.688,92.0156L453.953,92.0156L451.141,78.1719Q448.609,76.6875,444.141,75.5625Q439.688,74.4375,434.266,74.4375Q429.625,74.4375,426.078,75.75Q422.531,77.0469,420.453,79.6094Q418.375,82.1719,418.375,85.9062Q418.375,88.9219,420.125,91.3125Q421.891,93.7031,426.172,95.9219Q430.469,98.1406,438.062,100.8125Q455.219,105.7344,464.109,113.469Q473.016,121.203,473.016,134.062Q473.016,143,468.188,149.359Q463.375,155.719,454.719,159.109Q446.078,162.484,434.625,162.484ZM528.828,162.484Q518.344,162.484,509.656,158.609Q500.984,154.734,494.656,147.703Q488.328,140.672,484.906,131.219Q481.5,121.766,481.5,110.578L481.5,108.9688Q481.5,97.8594,484.906,88.4375Q488.328,79.0156,494.609,71.9844Q500.906,64.9531,509.594,61.0469Q518.281,57.1406,528.75,57.1406Q539.156,57.1406,547.875,61.0469Q556.594,64.9531,563.062,71.9844Q569.531,79.0156,573.047,88.4375Q576.562,97.8594,576.562,108.9688L576.562,110.578Q576.562,121.766,573.047,131.219Q569.531,140.672,563.094,147.703Q556.672,154.734,547.953,158.609Q539.234,162.484,528.828,162.484ZM528.828,145.25Q537.047,145.25,542.703,140.891Q548.375,136.531,551.25,128.76600000000002Q554.141,120.984,554.141,110.578L554.141,108.8281Q554.141,98.625,551.219,90.8906Q548.297,83.1562,542.641,78.7969Q536.984,74.4375,528.75,74.4375Q520.312,74.4375,514.828,78.7656Q509.344,83.0938,506.672,90.7969Q504,98.4844,504,108.8281L504,110.578Q504,120.984,506.703,128.797Q509.422,136.594,514.938,140.922Q520.453,145.25,528.828,145.25ZM584.375,161L584.375,147.703L595.203,145.531L595.203,74.1562L584.375,71.9844L584.375,58.625L667.203,58.625L667.203,87.6562L650.125,87.6562L649.422,75.9219L617.703,75.9219L617.703,102L653,102L653,119.234L617.703,119.234L617.703,145.531L628.469,147.703L628.469,161L584.375,161ZM696.516,161L696.516,147.703L707.344,145.531L707.344,75.9844L690.047,75.9844L689.125,87.6562L672.188,87.6562L672.188,58.625L765.281,58.625L765.281,87.6562L748.125,87.6562L747.281,75.9844L729.844,75.9844L729.844,145.531L740.672,147.703L740.672,161L696.516,161Z" fill="#FFFFFF" fill-opacity="1"/></g></g></svg>