<svg xmlns="http://www.w3.org/2000/svg" xmlns:xlink="http://www.w3.org/1999/xlink" fill="none" version="1.1" width="744" height="230" viewBox="0 0 744 230"><defs><clipPath id="master_svg0_1_0"><rect x="0" y="0" width="802" height="230" rx="0"/></clipPath><filter id="master_svg1_1_6" filterUnits="objectBoundingBox" color-interpolation-filters="sRGB" x="-16" y="-13" width="834" height="126"><feFlood flood-opacity="0" result="BackgroundImageFix"/><feColorMatrix in="SourceAlpha" type="matrix" values="0 0 0 0 0 0 0 0 0 0 0 0 0 0 0 0 0 0 127 0"/><feOffset dy="3" dx="0"/><feGaussianBlur stdDeviation="4"/><feColorMatrix type="matrix" values="0 0 0 0 0 0 0 0 0 0 0 0 0 0 0 0 0 0 0.1599999964237213 0"/><feBlend mode="normal" in2="BackgroundImageFix" result="effect1_dropShadow"/><feBlend mode="normal" in="SourceGraphic" in2="effect1_dropShadow" result="shape"/></filter></defs><g style="mix-blend-mode:passthrough" clip-path="url(#master_svg0_1_0)"><rect x="0" y="0" width="802" height="230" rx="0" fill="#FFFFFF" fill-opacity="0"/><g style="mix-blend-mode:passthrough" filter="url(#master_svg1_1_6)"><path d="M2.89062,164L2.89062,151.688L10.2031,150.641L42.75,61.625L63.7812,61.625L96.125,150.641L103.438,151.688L103.438,164L68.5625,164L68.5625,151.688L75.6562,150.422L71.1562,136.35899999999998L35.1562,136.35899999999998L30.6562,150.422L37.7656,151.688L37.7656,164L2.89062,164ZM40.0156,121.25L66.3125,121.25L54.3594,86.1562L53.375,83.0625L52.9531,83.0625L51.8906,86.375L40.0156,121.25ZM109.938,164L109.938,151.688L120.844,149.578L120.844,76.1094L109.938,74L109.938,61.625L152.266,61.625L152.266,74L141.375,76.1094L141.375,149.578L152.266,151.688L152.266,164L109.938,164ZM210.562,165.484Q198.406,165.484,189.156,161.266Q179.906,157.031,174.766,149.016Q169.641,141,169.641,129.547L169.641,76.1094L158.75,74L158.75,61.625L201.141,61.625L201.141,74L190.172,76.1094L190.172,129.547Q190.172,136.297,192.625,140.797Q195.094,145.297,199.656,147.516Q204.234,149.719,210.562,149.719Q217.031,149.719,221.641,147.516Q226.25,145.297,228.703,140.797Q231.172,136.297,231.172,129.547L231.172,76.1094L220.266,74L220.266,61.625L262.672,61.625L262.672,74L251.703,76.1094L251.703,129.547Q251.703,141,246.531,149.062Q241.359,157.109,232.109,161.297Q222.875,165.484,210.562,165.484ZM268.938,164L268.938,151.688L279.844,149.578L279.844,76.1094L268.938,74L268.938,61.625L317.453,61.625Q329.266,61.625,337.703,65.2812Q346.141,68.9375,350.672,75.7656Q355.219,82.5781,355.219,92.1406Q355.219,101.1406,350.719,108.25Q346.219,115.344,338.203,119.422Q330.188,123.5,319.703,123.562L300.375,123.562L300.375,149.578L311.344,151.688L311.344,164L268.938,164ZM334.828,164L317.594,119.766L336.094,115.203L351,149.656L359.719,151.688L359.719,164L334.828,164ZM300.375,107.75L317.109,107.75Q325.969,107.75,330.359,103.9844Q334.75,100.2188,334.75,93.0469Q334.75,85.9531,330.391,81.7031Q326.031,77.4375,317.453,77.4375L300.375,77.4375L300.375,107.75ZM409.703,165.484Q398.391,165.484,389.109,162.953Q379.828,160.406,370.828,154.156L370.828,129.406L386.719,129.406L388.891,143.953Q392.062,146.625,397.609,148.281Q403.172,149.938,409.703,149.938Q415.266,149.938,419.094,148.391Q422.922,146.844,424.922,144Q426.938,141.141,426.938,137.281Q426.938,133.625,425.141,130.781Q423.344,127.922,419.234,125.578Q415.125,123.219,408.094,121.031Q395.922,117.453,387.938,113.203Q379.969,108.9375,375.984,103Q372.016,97.0625,372.016,88.6875Q372.016,80.3906,376.625,74.0312Q381.234,67.6719,389.391,64.0156Q397.547,60.3594,408.234,60.2188Q420.047,60.0781,429.141,63.0312Q438.25,65.9844,444.859,71.25L444.859,94.3125L429.469,94.3125L426.797,80.25Q424.125,78.5625,419.578,77.2969Q415.047,76.0312,409.281,76.0312Q404.359,76.0312,400.594,77.5156Q396.844,78.9844,394.656,81.7969Q392.484,84.6094,392.484,88.625Q392.484,92.0625,394.375,94.6406Q396.281,97.2031,400.734,99.4844Q405.203,101.7656,413.078,104.375Q430.031,109.0781,438.781,116.812Q447.531,124.547,447.531,137.14100000000002Q447.531,145.859,442.812,152.219Q438.109,158.578,429.594,162.031Q421.094,165.484,409.703,165.484ZM502.844,165.484Q492.5,165.484,483.984,161.609Q475.484,157.734,469.328,150.75Q463.188,143.75,459.875,134.297Q456.578,124.828,456.578,113.578L456.578,112.0312Q456.578,100.8594,459.875,91.4062Q463.188,81.9375,469.297,74.9062Q475.422,67.875,483.922,64.0156Q492.438,60.1406,502.766,60.1406Q513.172,60.1406,521.75,64.0156Q530.328,67.875,536.516,74.9062Q542.703,81.9375,546.047,91.4062Q549.391,100.8594,549.391,112.0312L549.391,113.578Q549.391,124.828,546.047,134.297Q542.703,143.75,536.516,150.75Q530.328,157.734,521.781,161.609Q513.25,165.484,502.844,165.484ZM502.844,149.516Q511.562,149.516,517.328,145.016Q523.094,140.51600000000002,526,132.438Q528.922,124.344,528.922,113.578L528.922,111.8906Q528.922,101.2812,525.969,93.2344Q523.016,85.1719,517.219,80.6719Q511.422,76.1719,502.766,76.1719Q494.188,76.1719,488.484,80.6406Q482.797,85.1094,479.953,93.125Q477.109,101.1406,477.109,111.8906L477.109,113.578Q477.109,124.344,479.953,132.438Q482.797,140.51600000000002,488.531,145.016Q494.266,149.516,502.844,149.516ZM557.938,164L557.938,151.688L568.844,149.578L568.844,76.1094L557.938,74L557.938,61.625L639.438,61.625L639.438,89.6719L623.688,89.6719L622.766,77.4375L589.375,77.4375L589.375,105.6406L625.234,105.6406L625.234,121.453L589.375,121.453L589.375,149.578L600.344,151.688L600.344,164L557.938,164ZM670.5,164L670.5,151.688L681.469,149.578L681.469,77.4375L662.828,77.4375L661.703,89.6719L646.172,89.6719L646.172,61.625L737.5,61.625L737.5,89.6719L721.891,89.6719L720.766,77.4375L702,77.4375L702,149.578L713.031,151.688L713.031,164L670.5,164Z" fill="#D8D8D8" fill-opacity="1"/><path d="M483.57,162.52Q492.283,166.484,502.844,166.484Q513.467,166.484,522.194,162.52Q530.936,158.557,537.265,151.412Q543.581,144.267,546.99,134.63Q550.391,125,550.391,113.578L550.391,112.0312Q550.391,100.6871,546.99,91.0733Q543.581,81.4213,537.266,74.2456Q530.936,67.05199999999999,522.162,63.1043Q513.388,59.1406,502.766,59.1406Q492.221,59.1406,483.508,63.1051Q474.811,67.0543,468.542,74.2504Q462.307,81.4266,458.931,91.0769Q455.578,100.6898,455.578,112.0312L455.578,113.578Q455.578,124.997,458.931,134.628Q462.308,144.264,468.578,151.411Q474.875,158.556,483.57,162.52ZM388.846,163.918Q398.256,166.484,409.703,166.484Q421.289,166.484,429.97,162.958Q438.746,159.399,443.616,152.815Q448.531,146.19,448.531,137.14100000000002Q448.531,124.096,439.444,116.063Q430.527,108.1819,413.369,103.418Q405.583,100.837,401.19,98.5944Q396.944,96.4194,395.181,94.0493Q393.484,91.7352,393.484,88.625Q393.484,84.9505,395.446,82.4108Q397.464,79.8153,400.96,78.446Q404.549,77.0312,409.281,77.0312Q414.91,77.0312,419.31,78.2603Q423.407,79.4007,425.897,80.8722L428.641,95.3125L445.859,95.3125L445.859,70.7681L445.482,70.4679Q438.731,65.0891,429.449,62.0801Q420.199,59.0762,408.221,59.2188Q397.327,59.3622,388.982,63.1031Q380.582,66.86869999999999,375.815,73.4444Q371.016,80.0662,371.016,88.6875Q371.016,97.3658,375.154,103.5572Q379.277,109.7015,387.468,114.086Q395.542,118.384,407.797,121.986Q414.723,124.141,418.739,126.447Q422.63,128.666,424.295,131.315Q425.938,133.914,425.938,137.281Q425.938,140.824,424.104,143.425Q422.274,146.027,418.719,147.463Q415.071,148.938,409.703,148.938Q403.318,148.938,397.895,147.323Q392.799,145.801,389.823,143.424L387.581,128.406L369.828,128.406L369.828,154.679L370.258,154.978Q379.399,161.325,388.846,163.918ZM388.891,143.953L386.719,129.406L370.828,129.406L370.828,154.156Q379.828,160.406,389.109,162.953Q398.391,165.484,409.703,165.484Q421.094,165.484,429.594,162.031Q438.109,158.578,442.812,152.219Q447.531,145.859,447.531,137.14100000000002Q447.531,124.547,438.781,116.812Q430.031,109.0781,413.078,104.375Q405.203,101.7656,400.734,99.4844Q396.281,97.2031,394.375,94.6406Q392.484,92.0625,392.484,88.625Q392.484,84.6094,394.656,81.7969Q396.844,78.9844,400.594,77.5156Q404.359,76.0312,409.281,76.0312Q415.047,76.0312,419.578,77.2969Q424.125,78.5625,426.797,80.25L429.469,94.3125L444.859,94.3125L444.859,71.25Q438.25,65.9844,429.141,63.0312Q420.047,60.0781,408.234,60.2188Q397.547,60.3594,389.391,64.0156Q381.234,67.6719,376.625,74.0312Q372.016,80.3906,372.016,88.6875Q372.016,97.0625,375.984,103Q379.969,108.9375,387.938,113.203Q395.922,117.453,408.094,121.031Q415.125,123.219,419.234,125.578Q423.344,127.922,425.141,130.781Q426.938,133.625,426.938,137.281Q426.938,141.141,424.922,144Q422.922,146.844,419.094,148.391Q415.266,149.938,409.703,149.938Q403.172,149.938,397.609,148.281Q392.062,146.625,388.891,143.953ZM483.984,161.609Q492.5,165.484,502.844,165.484Q513.25,165.484,521.781,161.609Q530.328,157.734,536.516,150.75Q542.703,143.75,546.047,134.297Q549.391,124.828,549.391,113.578L549.391,112.0312Q549.391,100.8594,546.047,91.4062Q542.703,81.9375,536.516,74.9062Q530.328,67.875,521.75,64.0156Q513.172,60.1406,502.766,60.1406Q492.438,60.1406,483.922,64.0156Q475.422,67.875,469.297,74.9062Q463.188,81.9375,459.875,91.4062Q456.578,100.8594,456.578,112.0312L456.578,113.578Q456.578,124.828,459.875,134.297Q463.188,143.75,469.328,150.75Q475.484,157.734,483.984,161.609ZM1.89062,150.82L1.89062,165L38.7656,165L38.7656,150.85L31.9571,149.638L35.8862,137.35899999999998L70.4263,137.35899999999998L74.3555,149.638L67.5625,150.85L67.5625,165L104.438,165L104.438,150.82L96.8602,149.736L64.4819,60.625L42.0509,60.625L9.46933,149.735L1.89062,150.82ZM10.2031,150.641L2.89062,151.688L2.89062,164L37.7656,164L37.7656,151.688L31.6496,150.599L30.6562,150.422L30.9638,149.461L35.1562,136.35899999999998L71.1562,136.35899999999998L75.6562,150.422L74.663,150.599L68.5625,151.688L68.5625,164L103.438,164L103.438,151.688L96.125,150.641L63.7812,61.625L42.75,61.625L10.2031,150.641ZM108.938,150.862L108.938,165L153.266,165L153.266,150.863L142.375,148.753L142.375,76.93430000000001L153.266,74.8249L153.266,60.625L108.938,60.625L108.938,74.82509999999999L119.844,76.9345L119.844,148.753L108.938,150.862ZM120.844,149.578L109.938,151.688L109.938,164L152.266,164L152.266,151.688L141.375,149.578L141.375,76.1094L152.266,74L152.266,61.625L109.938,61.625L109.938,74L120.844,76.1094L120.844,149.578ZM188.741,162.175Q198.189,166.484,210.562,166.484Q223.091,166.484,232.522,162.208Q242.041,157.899,247.373,149.602Q252.703,141.293,252.703,129.547L252.703,76.9354L263.672,74.826L263.672,60.625L219.266,60.625L219.266,74.82509999999999L230.172,76.9345L230.172,129.547Q230.172,136.041,227.825,140.31799999999998Q225.526,144.535,221.209,146.613Q216.805,148.719,210.562,148.719Q204.463,148.719,200.094,146.616Q195.817,144.537,193.503,140.31799999999998Q191.172,136.042,191.172,129.547L191.172,76.9354L202.141,74.826L202.141,60.625L157.75,60.625L157.75,74.8249L168.641,76.93430000000001L168.641,129.547Q168.641,141.292,173.924,149.555Q179.223,157.818,188.741,162.175ZM169.641,76.1094L169.641,129.547Q169.641,141,174.766,149.016Q179.906,157.031,189.156,161.266Q198.406,165.484,210.562,165.484Q222.875,165.484,232.109,161.297Q241.359,157.109,246.531,149.062Q251.703,141,251.703,129.547L251.703,76.1094L262.672,74L262.672,61.625L220.266,61.625L220.266,74L231.172,76.1094L231.172,129.547Q231.172,136.297,228.703,140.797Q226.25,145.297,221.641,147.516Q217.031,149.719,210.562,149.719Q204.234,149.719,199.656,147.516Q195.094,145.297,192.625,140.797Q190.172,136.297,190.172,129.547L190.172,76.1094L201.141,74L201.141,61.625L158.75,61.625L158.75,74L169.641,76.1094ZM267.938,150.862L267.938,165L312.344,165L312.344,150.861L301.375,148.752L301.375,124.562L318.389,124.562L333.896,164.363L334.145,165L360.719,165L360.719,150.894L351.718,148.797L339.259,120Q347.087,115.841,351.564,108.7848Q356.219,101.4304,356.219,92.1406Q356.219,82.275,351.505,75.2127Q346.81,68.1378,338.101,64.3637Q329.473,60.625,317.453,60.625L267.938,60.625L267.938,74.82509999999999L278.844,76.9345L278.844,148.753L267.938,150.862ZM279.844,149.578L268.938,151.688L268.938,164L311.344,164L311.344,151.688L300.375,149.578L300.375,123.562L319.073,123.562L319.463,124.562L334.828,164L359.719,164L359.719,151.688L351,149.656L338.368,120.459L337.97,119.539Q338.086,119.481,338.203,119.422Q338.535,119.253,338.86,119.079Q346.405,115.05,350.719,108.25Q355.219,101.1406,355.219,92.1406Q355.219,82.5781,350.672,75.7656Q346.141,68.9375,337.703,65.2812Q329.266,61.625,317.453,61.625L268.938,61.625L268.938,74L279.844,76.1094L279.844,149.578ZM556.938,150.862L556.938,165L601.344,165L601.344,150.861L590.375,148.752L590.375,122.453L626.234,122.453L626.234,104.6406L590.375,104.6406L590.375,78.4375L621.838,78.4375L622.76,90.6719L640.438,90.6719L640.438,60.625L556.938,60.625L556.938,74.82509999999999L567.844,76.9345L567.844,148.753L556.938,150.862ZM568.844,149.578L557.938,151.688L557.938,164L600.344,164L600.344,151.688L589.375,149.578L589.375,121.453L625.234,121.453L625.234,105.6406L589.375,105.6406L589.375,77.4375L622.766,77.4375L623.688,89.6719L639.438,89.6719L639.438,61.625L557.938,61.625L557.938,74L568.844,76.1094L568.844,149.578ZM669.5,150.861L669.5,165L714.031,165L714.031,150.861L703,148.751L703,78.4375L719.853,78.4375L720.978,90.6719L738.5,90.6719L738.5,60.625L645.172,60.625L645.172,90.6719L662.615,90.6719L663.74,78.4375L680.469,78.4375L680.469,148.752L669.5,150.861ZM681.469,149.578L670.5,151.688L670.5,164L713.031,164L713.031,151.688L702,149.578L702,77.4375L720.766,77.4375L721.891,89.6719L737.5,89.6719L737.5,61.625L646.172,61.625L646.172,89.6719L661.703,89.6719L662.828,77.4375L681.469,77.4375L681.469,149.578ZM517.328,145.016Q511.562,149.516,502.844,149.516Q494.266,149.516,488.531,145.016Q482.797,140.51600000000002,479.953,132.438Q477.109,124.344,477.109,113.578L477.109,111.8906Q477.109,101.1406,479.953,93.125Q482.797,85.1094,488.484,80.6406Q494.188,76.1719,502.766,76.1719Q511.422,76.1719,517.219,80.6719Q523.016,85.1719,525.969,93.2344Q528.922,101.2812,528.922,111.8906L528.922,113.578Q528.922,124.344,526,132.438Q523.094,140.51600000000002,517.328,145.016ZM516.713,144.227Q511.218,148.516,502.844,148.516Q494.611,148.516,489.149,144.229Q483.643,139.909,480.897,132.106Q478.109,124.173,478.109,113.578L478.109,111.8906Q478.109,101.3129,480.896,93.4594Q483.642,85.7168,489.101,81.4278Q494.532,77.1718,502.766,77.1719Q511.079,77.1719,516.606,81.4618Q522.176,85.7858,525.03,93.5789Q527.922,101.4585,527.922,111.8906L527.922,113.578Q527.922,124.168,525.059,132.099Q522.251,139.905,516.713,144.227ZM317.109,106.75L301.375,106.75L301.375,78.4375L317.453,78.4375Q325.623,78.4375,329.693,82.4192Q333.75,86.3748,333.75,93.0469Q333.75,99.759,329.708,103.2253Q325.599,106.75,317.109,106.75ZM301.375,77.4375L317.453,77.4375Q326.031,77.4375,330.391,81.7031Q334.75,85.9531,334.75,93.0469Q334.75,100.2188,330.359,103.9844Q325.969,107.75,317.109,107.75L300.375,107.75L300.375,77.4375L301.375,77.4375ZM41.072,121.25L40.0156,121.25L40.3561,120.25L51.8906,86.375L52.6381,84.0446L52.9052,83.212L52.9531,83.0625L53.375,83.0625L53.423,83.2132L53.6879,84.0459L54.3594,86.1562L65.9719,120.25L66.3125,121.25L41.072,121.25ZM41.4125,120.25L52.8428,86.6804L53.1612,85.688L53.4128,86.4787L64.9155,120.25L41.4125,120.25Z" fill-rule="evenodd" fill="#FCFCFC" fill-opacity="1"/></g></g></svg>